{
 "accessors": [
  {
   "componentType": 5126,
   "type": "VEC3",
   "count": 702,
   "max": [
    0.125,
    0.009999999776482582,
    0.009957339614629745
   ],
   "min": [
    0,
    -0.009999999776482582,
    -0.009957339614629745
   ],
   "bufferView": 0
  },
  {
   "componentType": 5126,
   "type": "VEC3",
   "count": 702,
   "bufferView": 1
  },
  {
   "componentType": 5123,
   "type": "SCALAR",
   "count": 702,
   "bufferView": 2
  }
 ],
 "asset": {
  "version": "2.0",
  "generator": "clara.io"
 },
 "bufferViews": [
  {
   "buffer": 0,
   "byteOffset": 0,
   "byteLength": 8424,
   "target": 34962,
   "byteStride": 12
  },
  {
   "buffer": 0,
   "byteOffset": 8424,
   "byteLength": 8424,
   "target": 34962,
   "byteStride": 12
  },
  {
   "buffer": 0,
   "byteOffset": 16848,
   "byteLength": 1404,
   "target": 34963
  }
 ],
 "buffers": [
  {
   "byteLength": 18252,
   "uri": "data:application/octet-stream;base64,"
  }
 ],
 "materials": [
  {
   "name": "defaultMat",
   "pbrMetallicRoughness": {
    "baseColorFactor": [
     0.8,
     0.8,
     0.8,
     1
    ],
    "roughnessFactor": 0.3015,
    "metallicFactor": 0
   }
  }
 ],
 "meshes": [
  {
   "primitives": [
    {
     "indices": 2,
     "material": 0,
     "mode": 4,
     "attributes": {
      "POSITION": 0,
      "NORMAL": 1
     }
    }
   ]
  }
 ],
 "nodes": [
  {
   "name": "arrow_root",
   "translation": [
    -0.0003000000142492354,
    0,
    0
   ],
   "scale": [
    0.009999999776482582,
    0.009999999776482582,
    0.009999999776482582
   ],
   "children": [
    4
   ]
  },
  {
   "name": "Null",
   "translation": [
    -0.0003000000142492354,
    0,
    0
   ]
  },
  {
   "name": "Null1",
   "translation": [
    -0.0003000000142492354,
    0,
    0
   ]
  },
  {
   "name": "Null2",
   "translation": [
    -0.0003000000142492354,
    0,
    0
   ]
  },
  {
   "name": "default",
   "mesh": 0
  }
 ],
 "scene": 0,
 "scenes": [
  {
   "nodes": [
    0,
    1,
    2,
    3
   ]
  }
 ]
}